# xmcd CD database file
#
# Track frame offsets:
#	150
#	14776
#	31176
#	49429
#	63570
#	77481
#	98499
#	118193
#	136321
#	165372
#	179925
#	198707
#
# Disc length: 2909 seconds
#
# Revision: 0
# Processed by: cddbd v1.5.2PL0 Copyright (c) Steve Scherf et al.
# Submitted via: CDex 1.51
#
DISCID=aa0b5b0c
DTITLE=Tom Heurich Trio - Hotzen Session
DYEAR=2005
DGENRE=Jazz
TTITLE0=Schererei
TTITLE1=I'm an old Cowhand
TTITLE2=Morast
TTITLE3=Waggon Blues
TTITLE4=Illarde Blues
TTITLE5=Hunt
TTITLE6=Exchange
TTITLE7=Magic
TTITLE8=Bird
TTITLE9=Home
TTITLE10=Turn
TTITLE11=I'll Remember April
EXTD=YEAR: 2005
EXTT0=
EXTT1=
EXTT2=
EXTT3=
EXTT4=
EXTT5=
EXTT6=
EXTT7=
EXTT8=
EXTT9=
EXTT10=
EXTT11=
PLAYORDER=
